<mxfile host="app.diagrams.net" modified="2024-05-10T10:57:59.178Z" agent="Mozilla/5.0 (Windows NT 10.0; Win64; x64) AppleWebKit/537.36 (KHTML, like Gecko) Chrome/124.0.0.0 Safari/537.36" etag="Qpa5eBCQu8GYf4t2lTj3" version="24.2.2" type="github">
  <diagram name="第 1 页" id="Cl-aPhlweX5S9OngCL_X">
    <mxGraphModel dx="1185" dy="647" grid="1" gridSize="10" guides="1" tooltips="1" connect="1" arrows="1" fold="1" page="1" pageScale="1" pageWidth="1200" pageHeight="1600" math="0" shadow="0">
      <root>
        <mxCell id="0" />
        <mxCell id="1" parent="0" />
        <mxCell id="iiIo7ERJw5ryLge7hLHe-1" value="" style="rounded=0;whiteSpace=wrap;html=1;" vertex="1" parent="1">
          <mxGeometry x="160" y="230" width="980" height="610" as="geometry" />
        </mxCell>
        <mxCell id="iiIo7ERJw5ryLge7hLHe-3" value="测试环境kubernetes集群服务调用方式图解" style="text;html=1;align=center;verticalAlign=middle;whiteSpace=wrap;rounded=0;" vertex="1" parent="1">
          <mxGeometry x="532.5" y="260" width="157.5" height="30" as="geometry" />
        </mxCell>
        <mxCell id="iiIo7ERJw5ryLge7hLHe-6" value="" style="rounded=1;whiteSpace=wrap;html=1;" vertex="1" parent="1">
          <mxGeometry x="230" y="527.5" width="120" height="60" as="geometry" />
        </mxCell>
        <mxCell id="iiIo7ERJw5ryLge7hLHe-7" value="master节点" style="text;html=1;align=center;verticalAlign=middle;whiteSpace=wrap;rounded=0;" vertex="1" parent="1">
          <mxGeometry x="255" y="545" width="70" height="25" as="geometry" />
        </mxCell>
        <mxCell id="iiIo7ERJw5ryLge7hLHe-8" value="" style="rounded=1;whiteSpace=wrap;html=1;" vertex="1" parent="1">
          <mxGeometry x="380" y="310" width="400" height="230" as="geometry" />
        </mxCell>
        <mxCell id="iiIo7ERJw5ryLge7hLHe-9" value="" style="rounded=1;whiteSpace=wrap;html=1;" vertex="1" parent="1">
          <mxGeometry x="383" y="560" width="397" height="230" as="geometry" />
        </mxCell>
        <mxCell id="iiIo7ERJw5ryLge7hLHe-13" value="" style="endArrow=classic;html=1;rounded=0;entryX=0.004;entryY=0.575;entryDx=0;entryDy=0;entryPerimeter=0;" edge="1" parent="1" target="iiIo7ERJw5ryLge7hLHe-8">
          <mxGeometry width="50" height="50" relative="1" as="geometry">
            <mxPoint x="350" y="560" as="sourcePoint" />
            <mxPoint x="400" y="510" as="targetPoint" />
            <Array as="points">
              <mxPoint x="350" y="440" />
            </Array>
          </mxGeometry>
        </mxCell>
        <mxCell id="iiIo7ERJw5ryLge7hLHe-14" value="" style="endArrow=classic;html=1;rounded=0;entryX=0;entryY=0.5;entryDx=0;entryDy=0;" edge="1" parent="1" target="iiIo7ERJw5ryLge7hLHe-9">
          <mxGeometry width="50" height="50" relative="1" as="geometry">
            <mxPoint x="350" y="570" as="sourcePoint" />
            <mxPoint x="400" y="520" as="targetPoint" />
            <Array as="points">
              <mxPoint x="350" y="675" />
            </Array>
          </mxGeometry>
        </mxCell>
        <mxCell id="iiIo7ERJw5ryLge7hLHe-15" value="pod&lt;div&gt;A&lt;/div&gt;" style="rounded=1;whiteSpace=wrap;html=1;" vertex="1" parent="1">
          <mxGeometry x="420" y="350" width="40" height="30" as="geometry" />
        </mxCell>
        <mxCell id="iiIo7ERJw5ryLge7hLHe-16" value="Node1&lt;div&gt;192.168.222.111&lt;br&gt;&lt;/div&gt;" style="text;html=1;align=center;verticalAlign=middle;whiteSpace=wrap;rounded=0;" vertex="1" parent="1">
          <mxGeometry x="538.63" y="310" width="88.5" height="30" as="geometry" />
        </mxCell>
        <mxCell id="iiIo7ERJw5ryLge7hLHe-19" value="pod&lt;div&gt;A&lt;/div&gt;" style="rounded=1;whiteSpace=wrap;html=1;" vertex="1" parent="1">
          <mxGeometry x="420" y="400" width="40" height="30" as="geometry" />
        </mxCell>
        <mxCell id="iiIo7ERJw5ryLge7hLHe-20" value="pod&lt;div&gt;B&lt;/div&gt;" style="rounded=1;whiteSpace=wrap;html=1;" vertex="1" parent="1">
          <mxGeometry x="420" y="490" width="40" height="30" as="geometry" />
        </mxCell>
        <mxCell id="iiIo7ERJw5ryLge7hLHe-21" value="pod&lt;div&gt;B&lt;/div&gt;" style="rounded=1;whiteSpace=wrap;html=1;" vertex="1" parent="1">
          <mxGeometry x="420" y="587.5" width="40" height="30" as="geometry" />
        </mxCell>
        <mxCell id="iiIo7ERJw5ryLge7hLHe-22" value="service&lt;div&gt;A&lt;/div&gt;" style="rounded=1;whiteSpace=wrap;html=1;" vertex="1" parent="1">
          <mxGeometry x="570" y="370" width="120" height="60" as="geometry" />
        </mxCell>
        <mxCell id="iiIo7ERJw5ryLge7hLHe-23" value="&lt;div&gt;&lt;span style=&quot;background-color: initial;&quot;&gt;service&lt;/span&gt;&lt;br&gt;&lt;/div&gt;&lt;div&gt;&lt;span style=&quot;background-color: initial;&quot;&gt;B&lt;/span&gt;&lt;/div&gt;" style="rounded=1;whiteSpace=wrap;html=1;" vertex="1" parent="1">
          <mxGeometry x="570" y="610" width="120" height="60" as="geometry" />
        </mxCell>
        <mxCell id="iiIo7ERJw5ryLge7hLHe-27" value="nodeprot&lt;br&gt;A" style="rounded=0;whiteSpace=wrap;html=1;" vertex="1" parent="1">
          <mxGeometry x="750" y="380" width="70" height="40" as="geometry" />
        </mxCell>
        <mxCell id="iiIo7ERJw5ryLge7hLHe-28" value="nodeprot&lt;br&gt;A" style="rounded=0;whiteSpace=wrap;html=1;" vertex="1" parent="1">
          <mxGeometry x="750" y="600" width="70" height="40" as="geometry" />
        </mxCell>
        <mxCell id="iiIo7ERJw5ryLge7hLHe-29" value="nodeprot&lt;br&gt;B" style="rounded=0;whiteSpace=wrap;html=1;" vertex="1" parent="1">
          <mxGeometry x="750" y="680" width="70" height="40" as="geometry" />
        </mxCell>
        <mxCell id="iiIo7ERJw5ryLge7hLHe-35" value="" style="rounded=0;whiteSpace=wrap;html=1;direction=south;fillColor=none;" vertex="1" parent="1">
          <mxGeometry x="410" y="330" width="60" height="130" as="geometry" />
        </mxCell>
        <mxCell id="iiIo7ERJw5ryLge7hLHe-30" value="nodeprot&lt;br&gt;B" style="rounded=0;whiteSpace=wrap;html=1;" vertex="1" parent="1">
          <mxGeometry x="750" y="450" width="70" height="40" as="geometry" />
        </mxCell>
        <mxCell id="iiIo7ERJw5ryLge7hLHe-32" value="Node2&lt;div&gt;192.168.222.112&lt;br&gt;&lt;/div&gt;" style="text;html=1;align=center;verticalAlign=middle;whiteSpace=wrap;rounded=0;" vertex="1" parent="1">
          <mxGeometry x="535.75" y="560" width="94.25" height="30" as="geometry" />
        </mxCell>
        <mxCell id="iiIo7ERJw5ryLge7hLHe-36" value="" style="rounded=0;whiteSpace=wrap;html=1;direction=south;fillColor=none;" vertex="1" parent="1">
          <mxGeometry x="410" y="480" width="60" height="150" as="geometry" />
        </mxCell>
        <mxCell id="iiIo7ERJw5ryLge7hLHe-37" value="" style="endArrow=classic;html=1;rounded=0;exitX=0.534;exitY=-0.027;exitDx=0;exitDy=0;exitPerimeter=0;" edge="1" parent="1" source="iiIo7ERJw5ryLge7hLHe-35">
          <mxGeometry width="50" height="50" relative="1" as="geometry">
            <mxPoint x="520" y="450" as="sourcePoint" />
            <mxPoint x="570" y="400" as="targetPoint" />
          </mxGeometry>
        </mxCell>
        <mxCell id="iiIo7ERJw5ryLge7hLHe-39" value="" style="endArrow=classic;html=1;rounded=0;exitX=1;exitY=0.5;exitDx=0;exitDy=0;" edge="1" parent="1" source="iiIo7ERJw5ryLge7hLHe-36">
          <mxGeometry width="50" height="50" relative="1" as="geometry">
            <mxPoint x="472" y="650" as="sourcePoint" />
            <mxPoint x="570" y="651" as="targetPoint" />
            <Array as="points">
              <mxPoint x="440" y="650" />
              <mxPoint x="540" y="651" />
            </Array>
          </mxGeometry>
        </mxCell>
        <mxCell id="iiIo7ERJw5ryLge7hLHe-40" value="&lt;font style=&quot;font-size: 8px;&quot;&gt;集群内用域名访问：http://serviceA.[namespace]:[prot]&lt;/font&gt;" style="text;html=1;align=center;verticalAlign=middle;whiteSpace=wrap;rounded=0;" vertex="1" parent="1">
          <mxGeometry x="520" y="430" width="195" height="30" as="geometry" />
        </mxCell>
        <mxCell id="iiIo7ERJw5ryLge7hLHe-41" value="&lt;font style=&quot;font-size: 8px;&quot;&gt;集群内用域名访问：http://serviceB.[namespace]:[prot]&lt;/font&gt;" style="text;html=1;align=center;verticalAlign=middle;whiteSpace=wrap;rounded=0;" vertex="1" parent="1">
          <mxGeometry x="520" y="670" width="195" height="30" as="geometry" />
        </mxCell>
        <mxCell id="iiIo7ERJw5ryLge7hLHe-42" value="&lt;font style=&quot;font-size: 8px;&quot;&gt;集群外用node节点端口访问：http:192.168.222.111:30010&lt;/font&gt;" style="text;html=1;align=center;verticalAlign=middle;whiteSpace=wrap;rounded=0;" vertex="1" parent="1">
          <mxGeometry x="820" y="385" width="230" height="30" as="geometry" />
        </mxCell>
        <mxCell id="iiIo7ERJw5ryLge7hLHe-43" value="&lt;font style=&quot;font-size: 8px;&quot;&gt;集群外用node节点端口访问：http:192.168.222.112:30011&lt;/font&gt;" style="text;html=1;align=center;verticalAlign=middle;whiteSpace=wrap;rounded=0;" vertex="1" parent="1">
          <mxGeometry x="820" y="685" width="230" height="30" as="geometry" />
        </mxCell>
        <mxCell id="iiIo7ERJw5ryLge7hLHe-44" value="&lt;font style=&quot;font-size: 8px;&quot;&gt;集群外用node节点端口访问：http:192.168.222.111:30011&lt;/font&gt;" style="text;html=1;align=center;verticalAlign=middle;whiteSpace=wrap;rounded=0;" vertex="1" parent="1">
          <mxGeometry x="820" y="450" width="230" height="30" as="geometry" />
        </mxCell>
        <mxCell id="iiIo7ERJw5ryLge7hLHe-45" value="&lt;font style=&quot;font-size: 8px;&quot;&gt;集群外用node节点端口访问：http:192.168.222.112:30010&lt;/font&gt;" style="text;html=1;align=center;verticalAlign=middle;whiteSpace=wrap;rounded=0;" vertex="1" parent="1">
          <mxGeometry x="820" y="605" width="230" height="30" as="geometry" />
        </mxCell>
        <mxCell id="iiIo7ERJw5ryLge7hLHe-46" value="" style="endArrow=classic;html=1;rounded=0;exitX=1;exitY=0.5;exitDx=0;exitDy=0;" edge="1" parent="1" source="iiIo7ERJw5ryLge7hLHe-22">
          <mxGeometry width="50" height="50" relative="1" as="geometry">
            <mxPoint x="700" y="450" as="sourcePoint" />
            <mxPoint x="750" y="400" as="targetPoint" />
            <Array as="points" />
          </mxGeometry>
        </mxCell>
        <mxCell id="iiIo7ERJw5ryLge7hLHe-47" value="" style="endArrow=classic;html=1;rounded=0;exitX=1;exitY=0.667;exitDx=0;exitDy=0;exitPerimeter=0;" edge="1" parent="1" source="iiIo7ERJw5ryLge7hLHe-22">
          <mxGeometry width="50" height="50" relative="1" as="geometry">
            <mxPoint x="700" y="670" as="sourcePoint" />
            <mxPoint x="750" y="620" as="targetPoint" />
            <Array as="points">
              <mxPoint x="720" y="410" />
            </Array>
          </mxGeometry>
        </mxCell>
        <mxCell id="iiIo7ERJw5ryLge7hLHe-48" value="" style="endArrow=classic;html=1;rounded=0;entryX=0;entryY=0.5;entryDx=0;entryDy=0;exitX=0.5;exitY=0;exitDx=0;exitDy=0;" edge="1" parent="1" source="iiIo7ERJw5ryLge7hLHe-23" target="iiIo7ERJw5ryLge7hLHe-30">
          <mxGeometry width="50" height="50" relative="1" as="geometry">
            <mxPoint x="627.13" y="610" as="sourcePoint" />
            <mxPoint x="677.13" y="560" as="targetPoint" />
            <Array as="points">
              <mxPoint x="630" y="470" />
            </Array>
          </mxGeometry>
        </mxCell>
        <mxCell id="iiIo7ERJw5ryLge7hLHe-49" value="" style="endArrow=classic;html=1;rounded=0;entryX=0;entryY=0.5;entryDx=0;entryDy=0;" edge="1" parent="1" target="iiIo7ERJw5ryLge7hLHe-29">
          <mxGeometry width="50" height="50" relative="1" as="geometry">
            <mxPoint x="690" y="645" as="sourcePoint" />
            <mxPoint x="740" y="595" as="targetPoint" />
          </mxGeometry>
        </mxCell>
      </root>
    </mxGraphModel>
  </diagram>
</mxfile>
